<?xml version="1.0" standalone="no"?>
<!DOCTYPE svg PUBLIC "-//W3C//DTD SVG 20010904//EN"
 "http://www.w3.org/TR/2001/REC-SVG-20010904/DTD/svg10.dtd">
<svg version="1.0" xmlns="http://www.w3.org/2000/svg"
 width="400.000000pt" height="400.000000pt" viewBox="0 0 400.000000 400.000000"
 preserveAspectRatio="xMidYMid meet">
<metadata>
Created by potrace 1.14, written by Peter Selinger 2001-2017
</metadata>
<g transform="translate(0.000000,400.000000) scale(0.100000,-0.100000)"
fill="#000000" stroke="none">
<path d="M14 3975 c-3 -14 -7 -53 -8 -87 -1 -54 2 -63 18 -66 10 -2 23 3 28
12 13 23 28 10 28 -25 0 -22 -5 -29 -20 -29 -11 0 -20 -7 -20 -15 0 -8 -6 -15
-14 -15 -8 0 1 -15 20 -34 31 -31 33 -37 22 -56 -11 -17 -14 -18 -16 -4 -2 9
-12 24 -22 34 -18 18 -19 17 -25 -35 -4 -30 -4 -66 -1 -81 6 -22 9 -24 22 -13
13 10 20 10 35 0 11 -6 29 -9 40 -6 11 4 26 1 34 -5 12 -10 18 -8 33 10 l19
23 22 -36 c15 -25 20 -44 15 -61 -3 -15 -2 -32 4 -39 5 -6 12 -21 15 -32 2
-11 5 -1 6 22 1 44 14 56 44 41 10 -5 31 -6 48 -3 25 6 29 4 29 -15 0 -18 3
-20 13 -11 8 6 17 8 21 4 4 -4 4 -1 1 8 -3 8 1 23 9 34 14 20 14 20 36 0 21
-19 23 -19 35 -2 15 21 54 22 61 2 8 -19 44 -20 44 -1 0 32 21 25 36 -13 14
-35 32 -46 49 -30 13 13 7 100 -8 116 -20 23 -35 79 -18 69 6 -4 11 -2 11 4 0
6 5 8 10 5 6 -4 18 -1 27 6 9 8 21 14 27 15 6 0 17 2 24 2 6 1 12 10 12 20 1
14 4 13 20 -7 13 -15 27 -22 40 -18 26 7 37 -11 13 -20 -33 -12 -55 -46 -49
-75 3 -18 0 -28 -10 -32 -23 -9 -24 -8 -24 18 0 39 -17 40 -36 1 -15 -32 -15
-37 0 -60 21 -32 39 -32 64 0 17 21 21 22 26 9 3 -9 6 -25 6 -37 0 -16 3 -18
12 -9 6 6 12 42 13 79 4 102 2 98 21 82 12 -10 15 -24 11 -52 -5 -33 -1 -43
20 -63 33 -31 63 -32 63 -2 0 17 3 19 12 10 16 -16 28 -15 28 3 0 8 7 15 15
15 8 0 15 -4 15 -10 0 -16 15 -12 40 10 13 11 27 20 32 20 4 0 8 7 8 15 0 8
-5 15 -11 15 -6 0 -9 10 -7 23 2 16 11 23 31 25 32 4 46 -21 29 -49 -7 -10
-12 -30 -12 -43 0 -14 -6 -29 -13 -33 -7 -4 -18 -20 -25 -36 -6 -15 -17 -26
-24 -25 -7 2 -17 -7 -23 -19 -5 -13 -16 -23 -24 -23 -7 0 -19 -7 -26 -17 -8
-10 -19 -14 -30 -9 -14 5 -16 14 -12 44 6 37 6 37 -27 36 -51 -1 -78 -32 -78
-89 -1 -38 -5 -49 -20 -53 -10 -2 -18 -8 -18 -13 0 -5 -9 -9 -20 -9 -11 0 -20
5 -20 10 0 6 -9 5 -22 -2 -30 -17 -38 -28 -38 -54 0 -17 6 -21 33 -22 46 -1
99 -9 120 -17 9 -4 23 -2 30 3 8 7 18 7 27 2 9 -5 19 -5 28 2 9 8 16 8 24 0
18 -18 -18 -50 -65 -57 -23 -4 -51 -9 -62 -12 -20 -4 -79 -13 -102 -15 -7 -1
-13 -6 -13 -12 0 -6 -5 -4 -10 4 -8 13 -10 13 -10 -2 0 -12 -6 -16 -20 -13
-12 2 -23 -2 -26 -10 -3 -7 -14 -12 -25 -10 -12 3 -19 -2 -20 -13 -1 -11 -4
-8 -9 8 -7 21 -8 22 -9 5 -1 -26 -32 -45 -60 -38 -36 9 -27 103 11 103 10 0
16 -4 13 -10 -3 -5 -1 -10 4 -10 6 0 11 11 11 25 0 14 5 25 10 25 6 0 10 8 10
18 0 15 7 17 41 14 52 -5 62 5 47 46 -9 23 -17 31 -28 26 -8 -4 -37 -5 -65 -4
-117 6 -130 5 -137 -5 -4 -5 -8 6 -9 25 -1 31 -2 32 -8 10 -5 -21 -12 -25 -41
-26 -32 0 -35 3 -41 36 l-6 35 -3 -40 c-2 -39 -3 -39 -10 -10 -7 29 -8 29 -9
4 -1 -16 -7 -26 -16 -26 -11 0 -15 12 -16 46 0 25 -3 40 -6 34 -7 -18 -21 -16
-26 5 -3 9 -5 0 -6 -21 -1 -49 -29 -80 -67 -75 -27 3 -29 6 -31 53 l-3 50 14
-32 c11 -25 19 -30 35 -26 17 4 21 13 20 42 -1 27 -3 31 -7 14 -6 -19 -9 -20
-25 -9 -14 11 -17 24 -13 75 l5 61 -42 -3 c-33 -2 -41 -6 -39 -19 1 -9 -2 -19
-8 -23 -5 -3 -10 -10 -10 -16 0 -14 28 -11 33 4 3 6 6 3 7 -8 l1 -20 9 20 c6
15 9 7 8 -30 0 -39 -2 -45 -8 -25 -4 14 -8 19 -9 12 -1 -7 -5 -10 -11 -7 -5 3
-10 1 -10 -6 0 -7 -6 -4 -14 6 -13 18 -15 17 -21 -20 -11 -64 -13 -69 -45 -87
-40 -23 -41 -58 -3 -55 31 2 32 -4 17 -92 -5 -31 -3 -45 6 -51 10 -6 8 -13 -8
-30 -21 -23 -21 -40 1 -40 7 0 19 -5 27 -10 13 -8 12 -12 -7 -25 -23 -16 -33
-75 -13 -75 17 0 11 -24 -9 -37 -17 -11 -48 -100 -38 -110 8 -7 57 47 57 62 0
33 18 12 23 -26 3 -23 11 -45 18 -49 9 -6 7 -14 -8 -33 -13 -17 -24 -23 -33
-17 -23 14 -32 0 -25 -40 5 -31 2 -43 -14 -59 -21 -21 -31 -101 -12 -101 9 0
74 69 134 143 20 25 56 59 80 75 45 31 87 46 87 32 0 -11 -48 -60 -58 -60 -7
0 -49 -38 -150 -133 -23 -23 -56 -61 -72 -86 l-30 -44 0 -739 c0 -735 0 -738
20 -738 11 0 23 7 26 15 12 29 33 15 41 -28 7 -35 15 -45 45 -59 38 -18 57
-53 40 -70 -14 -14 -50 0 -57 23 -5 13 -15 19 -38 19 -18 0 -40 9 -54 22 l-23
21 0 -136 0 -137 88 1 c48 0 102 -4 119 -9 45 -14 118 -69 131 -97 6 -14 29
-36 52 -50 22 -14 40 -30 40 -35 0 -6 -22 -10 -49 -10 -26 0 -63 -5 -82 -11
-59 -20 -97 -66 -41 -50 15 5 42 6 59 4 18 -3 46 2 64 11 44 22 45 21 12 -15
-15 -17 -57 -45 -93 -64 -118 -60 -130 -79 -69 -111 24 -12 37 -13 60 -5 23 8
29 7 29 -5 0 -11 16 -14 68 -15 37 -1 81 -4 97 -8 l30 -7 -30 -7 c-92 -19
-161 -18 -209 2 -26 12 -55 21 -64 21 -19 0 -74 26 -147 69 -27 16 -53 30 -57
30 -5 1 -8 -55 -8 -124 l0 -125 464 0 c444 1 464 1 459 19 -6 23 20 31 110 31
62 0 68 -2 79 -25 15 -33 39 -32 66 5 13 16 30 30 38 30 9 0 29 -14 46 -30 29
-30 30 -30 145 -30 140 0 224 24 248 71 20 38 32 43 60 25 28 -19 28 -45 0
-76 -18 -20 -18 -20 25 -20 34 0 41 3 32 12 -17 17 -15 49 4 77 16 23 16 25
-7 42 -18 14 -34 17 -65 13 -36 -5 -42 -3 -58 21 -15 23 -24 26 -59 24 -23 -1
-57 -2 -75 -1 l-33 2 16 29 c8 17 12 36 9 44 -3 8 1 21 9 29 22 22 48 78 42
88 -11 18 -37 10 -94 -28 -31 -21 -78 -46 -104 -56 -26 -10 -49 -22 -52 -27
-4 -5 -14 -9 -24 -9 -10 0 -30 -9 -44 -20 -19 -15 -40 -20 -90 -20 -36 0 -68
-4 -71 -8 -3 -5 15 -25 39 -46 25 -20 45 -41 45 -45 0 -5 -35 -11 -77 -15 -43
-3 -94 -8 -114 -12 -69 -12 -62 30 12 76 27 16 49 33 49 36 0 11 -34 33 -52
34 -9 0 -37 16 -62 35 -26 19 -52 35 -59 35 -7 0 -35 19 -62 43 -28 24 -79 63
-115 87 -63 42 -80 57 -80 73 0 14 18 7 47 -17 21 -18 33 -21 51 -15 25 9 28
28 10 48 -11 12 -9 13 7 6 66 -24 131 -12 80 15 -23 12 -45 55 -45 88 0 11 9
13 43 7 23 -4 86 -8 140 -9 94 -2 99 -4 126 -32 15 -16 36 -35 47 -42 17 -11
16 -12 -13 -8 -27 5 -33 2 -33 -12 0 -10 5 -23 11 -29 11 -11 15 -10 84 18 11
4 40 10 65 13 61 8 62 8 90 1 18 -5 37 1 65 21 33 22 52 27 105 28 36 1 77 -3
91 -7 23 -8 26 -5 39 32 7 23 17 41 21 41 31 0 148 -105 150 -136 3 -27 4 -31
24 -67 10 -20 17 -39 13 -42 -6 -6 -45 10 -146 59 -67 33 -81 30 -82 -21 0
-18 6 -23 25 -23 32 0 45 -28 22 -45 -25 -18 -21 -22 26 -27 47 -6 117 -35
117 -49 0 -5 -11 -15 -25 -21 -13 -6 -27 -20 -31 -30 -3 -10 -15 -27 -27 -38
l-21 -20 40 0 c21 0 55 -1 74 -3 34 -4 35 -4 36 -55 1 -40 -3 -52 -14 -52 -11
0 -13 -8 -8 -31 3 -17 6 -38 6 -45 0 -10 14 -14 51 -14 l52 0 -6 63 c-3 34 -3
141 2 237 9 205 8 204 114 281 77 56 111 73 169 83 l37 7 26 -56 c14 -31 25
-60 25 -66 0 -5 17 -28 38 -52 43 -47 80 -118 89 -170 5 -30 2 -35 -19 -40
-14 -4 -37 -18 -52 -32 -15 -14 -31 -25 -35 -25 -5 0 -21 16 -35 35 -15 19
-32 35 -38 35 -19 0 -1 -77 27 -114 l27 -36 -27 -10 c-35 -13 -35 -14 -65 15
-27 26 -35 26 -87 -8 -25 -16 131 -147 176 -147 20 0 20 0 0 35 -17 28 -18 35
-7 35 19 0 48 -32 48 -53 0 -9 6 -17 14 -17 19 0 10 108 -11 132 -18 21 -8 58
15 58 20 0 47 -16 47 -27 1 -4 6 -18 13 -30 8 -15 9 -29 2 -48 -5 -14 -10 -40
-10 -56 l0 -29 83 0 83 0 14 48 c8 26 14 55 12 66 -1 13 2 16 13 12 17 -6 34
20 29 48 -1 11 8 41 22 67 13 27 24 53 24 60 0 6 -24 34 -54 62 -84 81 -276
296 -276 310 0 6 9 26 20 42 12 17 46 73 77 125 31 52 66 112 79 132 13 20 65
117 115 215 50 98 102 197 116 221 24 42 24 42 52 27 l29 -14 81 102 c125 158
135 167 183 167 16 0 41 20 80 62 56 62 57 63 72 41 l16 -21 42 20 c24 11 57
30 73 43 17 12 45 30 63 39 31 16 32 19 32 79 l0 63 91 11 91 12 66 -33 c37
-17 90 -48 119 -68 28 -19 63 -38 77 -42 13 -3 28 -15 31 -26 3 -11 10 -20 15
-20 5 0 16 -3 24 -6 14 -5 16 9 15 120 0 117 -2 126 -20 126 -10 0 -19 -7 -19
-15 0 -27 -19 -15 -40 25 -11 21 -20 42 -20 45 0 3 17 5 38 5 45 0 56 8 41 27
-13 15 -49 18 -49 4 0 -5 -8 -8 -18 -6 -9 2 -20 4 -24 4 -15 2 -7 19 22 51 21
23 30 27 30 16 0 -23 27 -31 45 -13 12 13 15 44 15 164 0 82 -4 142 -9 135
-10 -17 -125 -19 -163 -4 -35 14 -35 19 0 20 15 0 48 2 75 4 26 1 48 0 50 -3
4 -13 47 11 47 26 0 11 -11 15 -45 15 -25 0 -45 4 -45 9 0 14 25 20 41 10 28
-18 29 -8 3 27 -20 26 -29 32 -36 22 -6 -10 -10 -10 -18 2 -13 20 -13 23 5 46
14 17 16 18 25 2 6 -10 18 -14 30 -11 11 3 20 1 21 -3 2 -42 9 -88 13 -92 3
-3 6 311 6 697 l0 701 -68 0 c-41 0 -73 -5 -81 -12 -11 -10 -14 -10 -18 0 -6
17 -30 15 -37 -3 -3 -9 0 -15 10 -15 8 0 12 -5 9 -10 -4 -6 -12 -7 -18 -3 -7
4 -28 9 -47 10 -112 8 -130 7 -135 -4 -6 -18 -25 -16 -25 2 0 7 8 18 18 24 12
7 -7 9 -65 8 -68 0 -83 -3 -83 -16 0 -9 -9 -22 -20 -29 -17 -10 -20 -10 -20 3
0 8 -9 15 -20 15 -10 0 -24 8 -29 18 -15 24 -30 -1 -25 -42 16 -130 15 -128
32 -121 19 8 25 9 70 7 17 -1 32 -6 32 -12 0 -16 -63 -38 -82 -29 -27 15 -37
10 -40 -18 -4 -38 -28 -42 -28 -5 0 18 6 32 16 36 15 6 15 8 2 24 -12 13 -15
37 -13 95 2 77 -1 87 -23 65 -9 -9 -18 -9 -37 0 -36 17 -165 16 -165 0 0 -10
-2 -10 -8 -1 -5 8 -49 12 -137 12 -82 0 -125 -3 -115 -9 26 -16 4 -21 -26 -5
-32 17 -169 22 -159 5 3 -5 12 -7 20 -3 18 6 20 -8 3 -25 -16 -16 -28 -15 -28
3 0 8 -4 15 -10 15 -13 0 -13 -27 0 -35 12 -8 1 -35 -15 -35 -16 0 -40 29 -53
65 -9 27 -11 24 -13 -35 -1 -36 -3 -72 -4 -80 -1 -8 -3 -21 -4 -27 0 -7 -8
-13 -16 -13 -10 0 -15 10 -15 31 0 27 -2 30 -15 19 -10 -8 -15 -29 -14 -59 0
-37 2 -42 10 -26 7 14 8 6 4 -29 -3 -27 -5 -66 -5 -87 0 -28 -4 -39 -15 -39
-17 0 -21 -45 -5 -55 12 -7 4 -25 -11 -25 -5 0 -9 5 -9 11 0 7 -11 22 -25 35
-30 28 -31 35 -5 52 17 10 19 19 14 55 -8 51 -20 67 -46 64 -12 -1 -23 4 -26
11 -2 9 3 13 14 12 34 -4 54 0 54 10 0 5 -7 7 -15 4 -8 -4 -15 -2 -15 4 0 5
11 13 25 16 25 6 30 18 26 69 -1 16 3 34 9 42 17 21 2 39 -16 20 -20 -19 -34
-19 -34 0 0 12 -5 13 -17 7 -10 -5 -23 -7 -30 -5 -15 6 -62 -28 -63 -44 0 -21
-17 -15 -23 8 -4 16 -10 19 -28 14 -14 -5 -25 -2 -30 6 -6 10 -9 10 -9 2 0 -7
-7 -10 -16 -6 -12 4 -14 0 -8 -21 3 -14 3 -33 0 -42 -6 -15 -8 -15 -31 0 l-25
16 0 -40 c0 -33 -3 -40 -20 -40 -15 0 -20 7 -20 28 0 53 10 71 43 74 29 3 31
6 33 46 2 35 -1 42 -17 42 -10 0 -19 -7 -19 -15 0 -8 -3 -15 -6 -15 -3 0 -12
7 -20 15 -12 12 -41 15 -130 15 -69 0 -114 -4 -114 -10 0 -13 -107 -13 -115 0
-8 13 -54 -20 -55 -40 0 -8 8 -20 19 -27 13 -8 17 -19 14 -37 -6 -28 11 -36
21 -11 3 8 15 15 26 15 11 0 28 9 37 20 10 11 23 20 29 20 7 0 14 7 18 15 7
20 36 19 36 0 0 -9 -12 -27 -27 -40 -27 -22 -27 -24 -8 -31 11 -4 34 -22 50
-40 21 -24 36 -32 51 -28 19 5 20 1 22 -70 1 -80 -9 -100 -36 -72 -14 13 -14
20 -4 36 17 28 15 49 -5 45 -10 -2 -22 -4 -26 -4 -5 -1 -6 -9 -3 -18 4 -12 -2
-21 -17 -29 -22 -10 -23 -8 -25 23 -2 27 1 33 17 33 21 0 37 40 19 51 -18 12
-38 -2 -38 -25 0 -12 -6 -31 -14 -42 -14 -18 -15 -18 -26 11 -6 17 -18 36 -27
43 -10 7 -12 12 -5 12 7 0 12 7 12 15 0 26 -28 16 -35 -12 -7 -31 -23 -53 -36
-53 -5 0 -4 9 3 21 11 17 10 22 -4 30 -10 6 -18 19 -18 29 0 23 -10 25 -29 8
-10 -11 -14 -9 -23 5 -9 16 -12 17 -26 4 -11 -10 -28 -13 -45 -10 -22 4 -26 9
-21 25 4 13 2 18 -4 14 -6 -3 -13 -2 -17 4 -4 6 5 10 19 10 22 0 26 5 26 28 0
19 5 29 15 29 17 0 20 -13 5 -22 -15 -9 -12 -22 5 -29 9 -3 24 3 35 14 18 18
18 22 5 55 -12 27 -21 35 -42 35 -14 0 -32 -8 -39 -17 -13 -17 -15 -17 -28 0
-7 9 -21 17 -31 17 -14 0 -16 -6 -12 -30 6 -27 5 -28 -16 -21 -12 4 -26 18
-32 29 -8 18 -18 22 -55 22 -41 -1 -44 -2 -26 -15 16 -12 18 -19 8 -40 -11
-23 -42 -26 -42 -4 0 5 -4 9 -8 9 -5 0 -7 -13 -4 -30 2 -16 8 -28 12 -25 5 3
11 1 15 -5 10 -16 35 -12 35 7 0 15 1 15 18 0 10 -10 21 -14 25 -11 3 3 4 -18
1 -47 -3 -36 0 -55 8 -61 8 -5 3 -8 -14 -8 -21 0 -28 -5 -28 -20 0 -18 4 -20
40 -14 24 4 45 2 53 -5 11 -8 18 -6 32 9 38 42 68 9 50 -55 -7 -22 -14 -33
-16 -26 -9 27 -39 4 -39 -29 0 -24 4 -30 18 -28 13 2 16 -3 14 -21 -3 -16 1
-22 10 -19 14 5 14 17 2 57 -5 18 -4 22 6 16 8 -5 18 -1 27 10 12 18 13 18 13
-2 0 -29 27 -50 48 -36 10 6 16 18 14 26 -3 19 14 32 23 17 9 -15 25 -12 25 5
0 21 16 19 41 -6 l22 -22 -24 -18 c-13 -10 -30 -19 -36 -19 -15 0 -18 -20 -3
-20 6 0 3 -11 -6 -25 -16 -25 -13 -55 5 -55 6 0 18 14 27 31 l16 31 21 -30
c12 -17 33 -37 46 -44 20 -11 25 -10 36 6 10 14 21 16 44 11 24 -5 31 -3 31 9
0 20 -20 32 -30 16 -6 -10 -9 -9 -13 1 -4 10 -8 11 -14 3 -5 -8 -16 -8 -32 -3
-18 7 -22 15 -18 34 2 16 -1 29 -10 33 -11 6 -8 11 13 21 30 13 44 7 26 -11
-22 -22 -12 -28 49 -28 50 0 59 -2 50 -13 -8 -10 -7 -19 4 -33 12 -16 17 -17
34 -6 26 16 31 15 31 -2 0 -8 16 -27 36 -42 30 -23 35 -32 30 -56 -4 -21 -2
-28 9 -28 8 0 15 5 15 11 0 5 4 7 10 4 6 -3 10 1 10 9 0 9 8 16 17 16 15 0 14
2 -3 15 -21 16 -24 14 39 19 11 1 13 -15 9 -74 -2 -26 -22 -26 -29 0 -4 16 -8
18 -19 9 -8 -6 -14 -20 -14 -30 0 -20 -34 -27 -45 -9 -4 6 -10 8 -14 5 -5 -2
-11 14 -15 37 -8 47 -24 41 -35 -12 -5 -26 -14 -34 -45 -45 -30 -11 -44 -11
-60 -2 -12 6 -29 10 -38 8 -12 -1 -18 4 -18 18 0 19 3 19 26 9 22 -10 28 -10
38 5 8 10 24 15 42 14 23 -2 30 2 32 21 5 33 -13 49 -48 44 -21 -3 -30 -10
-30 -23 0 -18 -2 -17 -22 4 l-23 22 -3 -33 c-3 -31 -5 -33 -40 -30 -33 3 -37
0 -36 -19 0 -16 -5 -23 -18 -23 -20 0 -24 -16 -6 -23 10 -4 10 -7 0 -15 -10
-7 -10 -11 2 -21 18 -15 36 -6 36 17 0 13 2 14 9 3 6 -10 10 -10 16 -1 5 8 11
4 19 -12 6 -12 21 -23 31 -24 39 -2 45 -4 45 -16 0 -7 9 -24 20 -38 15 -20 21
-23 31 -12 7 6 26 12 42 12 23 0 28 -4 23 -16 -10 -26 4 -37 25 -18 15 14 21
14 34 4 8 -7 15 -23 15 -35 0 -22 -1 -22 -127 -18 -88 2 -138 8 -161 19 -25
12 -36 13 -47 4 -19 -16 -57 -3 -53 18 4 19 85 35 130 26 20 -4 29 0 38 17 18
32 4 36 -123 38 -61 1 -113 3 -115 6 -2 2 -1 13 3 24 4 13 13 18 25 16 28 -5
32 9 10 33 -18 19 -18 21 -2 28 14 5 11 8 -13 14 -16 4 -37 9 -45 11 -9 3 -16
-5 -18 -18 -2 -13 -7 -23 -11 -23 -4 0 -27 -18 -50 -40 -45 -43 -61 -49 -61
-24 0 9 -8 18 -18 21 -14 3 -18 11 -14 29 3 17 -3 30 -19 44 -26 21 -59 27
-59 10 0 -5 -7 -10 -15 -10 -9 0 -14 -8 -12 -22 2 -20 -3 -23 -33 -22 -20 0
-45 6 -55 13 -17 10 -14 11 19 6 26 -4 41 -2 47 6 12 21 -2 39 -31 39 -21 0
-29 6 -33 23 -4 12 -13 31 -21 42 -14 17 -17 18 -26 5 -15 -23 -12 -43 5 -36
17 6 20 -11 6 -33 -8 -12 -12 -9 -23 15 -7 16 -17 32 -22 36 -5 3 -2 18 9 34
11 17 20 23 23 16 5 -15 38 -16 47 -2 8 14 46 2 61 -18 16 -22 44 -7 44 23 0
15 4 24 10 20 18 -11 11 -46 -12 -66 -20 -16 -21 -20 -8 -29 21 -14 42 -12 65
6 19 14 19 16 3 28 -25 18 -21 76 4 76 6 0 8 -7 4 -15 -3 -10 1 -15 13 -15 21
0 31 19 31 56 0 28 -16 32 -23 7 -4 -17 -5 -17 -6 0 -1 15 -3 15 -21 -3 -24
-24 -42 -26 -34 -5 4 8 1 15 -5 15 -6 0 -11 -5 -11 -11 0 -6 -14 -9 -32 -7
-27 2 -34 8 -36 30 -2 19 3 31 17 40 12 7 21 21 21 30 0 22 -18 24 -26 3 -7
-16 -30 -20 -38 -6 -3 5 3 20 14 34 21 26 27 67 10 67 -5 0 -10 15 -10 33 0
28 -6 36 -37 53 -26 13 -39 28 -41 44 -2 14 -10 29 -18 33 -8 4 -14 21 -14 38
0 25 -3 28 -17 20 -10 -5 -26 -12 -35 -15 -10 -3 -18 -13 -18 -22 0 -10 5 -14
15 -10 10 3 15 -1 15 -13 0 -17 -18 -31 -40 -31 -5 0 -10 12 -12 27 -3 26 -3
26 -21 8 -13 -12 -17 -27 -14 -44 4 -19 -2 -33 -23 -55 -33 -32 -50 -27 -50
15 0 36 -26 39 -42 5 -16 -37 -37 -40 -65 -10 l-24 26 -19 -20 c-12 -13 -27
-18 -40 -15 -16 4 -20 0 -21 -23 -1 -25 -2 -24 -10 10 -11 47 -8 43 -42 51
-23 6 -27 4 -27 -13 0 -10 9 -31 20 -45 11 -14 20 -30 20 -36 0 -15 -26 -14
-50 1 -16 10 -23 9 -40 -7 -30 -27 -149 -28 -178 -1 -18 15 -21 16 -36 1 -11
-11 -25 -14 -49 -10 -28 6 -35 3 -47 -19 -16 -31 -30 -34 -30 -6 0 11 -7 23
-15 26 -8 4 -15 12 -15 19 0 8 -4 17 -10 20 -6 4 -9 -3 -7 -15 2 -18 -4 -23
-30 -25 -20 -2 -34 3 -37 12 -7 18 -82 16 -113 -3 -29 -18 -36 -6 -31 53 3 44
2 46 -32 57 -32 10 -43 28 -32 50 3 4 8 2 13 -5 7 -11 9 -10 9 5 0 15 3 16 14
6 12 -9 17 -7 28 9 17 28 25 26 33 -9 8 -37 25 -48 37 -26 5 9 15 16 22 16 7
0 17 10 22 21 9 20 11 20 26 5 25 -25 38 -19 37 17 -1 30 -1 31 -9 7 l-8 -25
-2 25 c-1 23 -2 23 -10 5 -7 -17 -9 -17 -9 -2 -1 15 -13 17 -106 17 -103 0
-105 0 -111 -25z m2876 -5 c0 -5 -2 -10 -4 -10 -3 0 -8 5 -11 10 -3 6 -1 10 4
10 6 0 11 -4 11 -10z m260 1 c0 -6 -4 -13 -10 -16 -5 -3 -10 1 -10 9 0 9 5 16
10 16 6 0 10 -4 10 -9z m-420 -26 c0 -14 -4 -25 -10 -25 -5 0 -10 11 -10 25 0
14 5 25 10 25 6 0 10 -11 10 -25z m580 -21 c0 -18 -46 -62 -55 -52 -1 2 -8 14
-15 27 -11 21 -10 23 4 18 11 -4 21 3 32 25 12 24 18 28 25 17 5 -8 9 -24 9
-35z m-1745 6 c3 -6 -4 -14 -16 -18 -15 -6 -18 -11 -11 -16 23 -14 12 -24 -13
-13 -31 15 -32 31 -2 45 29 14 35 14 42 2z m462 4 c-3 -3 -12 -4 -19 -1 -8 3
-5 6 6 6 11 1 17 -2 13 -5z m1063 -59 c0 -17 -10 -24 -26 -18 -15 5 -19 44 -7
57 8 8 33 -22 33 -39z m101 -1 c17 -20 6 -37 -25 -40 -16 -2 -25 0 -22 3 3 3
1 12 -5 19 -6 8 -9 20 -6 28 7 17 40 11 58 -10z m-2016 -18 c7 3 16 1 20 -5 3
-6 19 -11 36 -11 24 0 29 -4 29 -25 0 -14 5 -25 10 -25 6 0 20 -9 32 -20 l22
-20 -23 -45 c-15 -30 -29 -45 -42 -45 -15 0 -19 -7 -19 -31 0 -24 -4 -30 -17
-27 -21 4 -30 45 -14 61 6 6 11 21 11 34 0 12 8 38 17 58 14 30 15 38 4 45
-22 13 -60 -10 -63 -38 -4 -35 -22 -38 -42 -7 -20 30 -13 70 10 61 12 -5 14 2
10 32 -3 20 -3 29 0 20 3 -9 11 -15 19 -12z m335 -7 c0 -10 5 -19 10 -19 6 0
10 -4 10 -10 0 -5 -7 -10 -16 -10 -11 0 -14 -6 -9 -20 3 -11 2 -20 -3 -20 -17
0 -31 88 -16 103 11 10 24 -3 24 -24z m1250 21 c0 -5 -7 -10 -15 -10 -8 0 -15
5 -15 10 0 6 7 10 15 10 8 0 15 -4 15 -10z m96 -6 c-3 -9 -6 -18 -6 -20 0 -2
-9 -4 -20 -4 -25 0 -27 27 -2 33 31 8 34 7 28 -9z m-797 -7 c6 -8 8 -17 4 -21
-4 -4 -1 -11 7 -16 11 -7 5 -10 -20 -9 -19 0 -29 3 -22 6 18 7 15 41 -5 46
-14 4 -14 5 3 6 12 0 27 -5 33 -12z m611 -22 c27 -28 55 -33 64 -9 3 8 10 12
16 9 15 -9 12 -42 -5 -49 -17 -6 -21 -61 -5 -71 6 -3 10 -17 10 -31 0 -13 -4
-24 -10 -24 -5 0 -10 5 -10 10 0 6 -7 10 -15 10 -14 0 -19 10 -16 35 1 14 -48
35 -55 24 -8 -13 5 -29 23 -29 13 0 15 -10 11 -60 -5 -74 -21 -95 -46 -62 -12
15 -24 21 -35 16 -11 -4 -19 0 -23 11 -9 22 17 40 29 20 10 -19 33 -19 40 -2
10 27 -6 64 -34 81 -17 10 -35 29 -40 43 -11 31 -2 66 15 60 15 -6 40 8 42 23
1 5 2 12 3 15 3 11 19 3 41 -20z m297 -7 c-3 -8 -6 -5 -6 6 -1 11 2 17 5 13 3
-3 4 -12 1 -19z m670 7 c37 8 155 14 149 8 -3 -3 -1 -12 5 -19 8 -10 8 -15 -2
-19 -23 -8 -299 -13 -299 -5 0 12 34 38 55 42 11 2 32 1 47 -3 15 -4 35 -6 45
-4z m-1377 -15 c0 -11 -7 -20 -15 -20 -15 0 -21 21 -8 33 12 13 23 7 23 -13z
m1026 -2 c4 -6 -1 -17 -11 -24 -23 -17 -29 -12 -20 15 7 23 20 27 31 9z m-146
-32 c-15 -15 -33 4 -19 20 10 12 14 12 20 2 5 -7 4 -17 -1 -22z m57 28 c-3 -3
-12 -4 -19 -1 -8 3 -5 6 6 6 11 1 17 -2 13 -5z m-832 -14 c3 -6 -1 -13 -9 -16
-9 -3 -14 -10 -11 -14 5 -8 -31 -21 -38 -13 -5 5 34 50 45 52 4 1 10 -4 13 -9z
m-1285 -19 c0 -5 -6 -11 -12 -13 -8 -3 -4 -9 10 -17 12 -6 22 -21 22 -31 0
-17 -7 -20 -40 -20 -28 0 -40 4 -40 14 0 8 5 16 12 18 7 3 9 12 5 22 -7 17 -9
18 -25 2 -10 -9 -24 -16 -30 -16 -13 0 -17 32 -5 43 10 11 103 8 103 -2z
m1002 -15 c11 -16 0 -24 -27 -18 -23 4 -33 21 -19 35 8 7 37 -3 46 -17z
m-1129 -6 c-6 -22 -43 -28 -43 -7 0 18 10 27 31 27 12 0 16 -6 12 -20z m1267
6 c0 -11 -19 -15 -25 -6 -3 5 1 10 9 10 9 0 16 -2 16 -4z m730 -11 c0 -8 -2
-15 -4 -15 -2 0 -6 7 -10 15 -3 8 -1 15 4 15 6 0 10 -7 10 -15z m364 -12 c7
-16 -17 -57 -27 -46 -4 3 -7 2 -7 -3 0 -5 9 -15 20 -22 21 -13 27 -42 9 -42
-8 0 -10 -19 -5 -65 5 -50 3 -69 -7 -80 -8 -8 -17 -11 -21 -8 -3 4 -6 2 -6 -3
0 -5 9 -15 21 -22 17 -11 19 -19 13 -60 -3 -26 -13 -54 -20 -63 -8 -8 -14 -21
-14 -27 0 -7 -4 -12 -9 -12 -16 0 -19 24 -6 50 17 35 -14 105 -51 114 -25 7
-54 28 -54 40 0 3 9 6 19 6 11 0 23 5 26 11 4 6 13 8 20 5 7 -2 23 5 35 16 21
19 22 27 16 92 -4 38 -8 71 -10 73 -2 2 -16 6 -32 9 -36 6 -37 8 -30 31 5 15
13 18 35 15 16 -2 31 1 35 6 8 14 43 3 50 -15z m-1154 0 c16 4 24 1 27 -14 4
-14 14 -19 39 -19 22 0 34 -5 34 -14 0 -7 7 -19 15 -26 9 -7 14 -19 11 -26 -3
-7 2 -15 10 -18 10 -4 16 3 21 25 6 32 24 45 63 44 14 0 28 5 32 10 5 6 8 6 8
-1 0 -17 -49 -46 -67 -40 -27 11 -9 -27 22 -44 38 -21 48 -56 14 -47 -15 4
-27 0 -34 -10 -13 -18 -35 -10 -35 13 0 17 -16 19 -26 3 -10 -16 -25 12 -18
34 3 10 0 17 -8 17 -10 0 -9 3 2 10 13 9 13 11 0 19 -9 6 -19 6 -27 -1 -10 -8
-13 -6 -13 6 0 9 5 16 12 16 7 0 8 3 3 9 -17 15 -102 21 -113 8 -12 -13 -12
-14 -13 -59 0 -20 -3 -27 -7 -18 -4 8 -14 16 -22 18 -31 7 -58 46 -27 40 6 -2
12 4 12 12 0 23 18 40 32 29 7 -6 13 -6 17 0 4 5 2 12 -4 16 -6 4 -7 11 -4 17
4 7 9 6 14 -2 5 -8 17 -10 30 -7z m402 -136 c2 -53 1 -93 0 -87 -2 6 -8 7 -13
4 -7 -4 -8 16 -3 55 4 40 3 61 -4 61 -9 0 -10 49 -2 110 5 38 19 -55 22 -143z
m523 104 c-11 -19 -41 -8 -39 13 1 12 3 25 3 30 1 6 10 0 22 -12 11 -12 17
-26 14 -31z m453 24 c67 1 122 -2 122 -7 0 -4 -15 -8 -32 -8 -18 -1 -84 -2
-146 -4 -112 -3 -129 1 -118 31 5 13 9 13 29 1 16 -11 53 -14 145 -13z m-2718
-3 c0 -10 -7 -19 -15 -19 -18 0 -19 9 -3 25 16 16 18 15 18 -6z m868 -9 c2
-11 -4 -26 -13 -33 -8 -7 -15 -19 -15 -26 0 -32 -19 -11 -22 24 -4 53 42 87
50 35z m736 11 c3 -8 2 -12 -4 -9 -6 3 -10 10 -10 16 0 14 7 11 14 -7z m403
10 c-3 -3 -12 -4 -19 -1 -8 3 -5 6 6 6 11 1 17 -2 13 -5z m341 -22 c2 -7 0
-12 -5 -11 -4 1 -16 -1 -27 -6 -21 -9 -42 15 -23 27 17 11 50 5 55 -10z m566
9 c7 -11 -22 -23 -35 -15 -5 3 -7 10 -4 15 8 12 32 12 39 0z m-3603 -42 c-4
-30 -23 -43 -34 -24 -9 17 13 57 28 52 5 -2 8 -15 6 -28z m465 14 c15 -20 19
-53 6 -53 -15 0 -32 24 -32 47 0 27 8 29 26 6z m2741 -15 c-3 -8 -6 -5 -6 6
-1 11 2 17 5 13 3 -3 4 -12 1 -19z m-3078 -36 c0 -37 0 -37 -16 -14 -8 12 -22
22 -29 22 -21 0 -17 14 9 26 31 14 37 8 36 -34z m191 29 c0 -24 -18 -37 -31
-24 -13 13 -1 43 17 43 8 0 14 -9 14 -19z m2769 -44 c1 -11 -3 -15 -10 -11
-18 11 -28 -18 -22 -63 4 -29 2 -43 -6 -43 -6 0 -11 4 -11 9 0 6 -11 22 -25
37 -14 15 -25 33 -25 40 0 7 -8 11 -19 9 -14 -3 -18 2 -17 21 1 32 33 32 48
-1 17 -37 33 -30 54 23 17 44 18 45 25 22 4 -14 7 -33 8 -43z m-2884 23 c-5
-8 -11 -8 -17 -2 -6 6 -7 16 -3 22 5 8 11 8 17 2 6 -6 7 -16 3 -22z m661 -16
c-5 -13 -10 -14 -18 -6 -6 6 -8 18 -4 28 5 13 10 14 18 6 6 -6 8 -18 4 -28z
m930 9 c-10 -10 -19 5 -10 18 6 11 8 11 12 0 2 -7 1 -15 -2 -18z m1004 -8 c0
-27 -4 -35 -17 -35 -13 0 -15 2 -5 8 9 7 10 15 3 35 -9 22 -8 27 4 27 10 0 15
-11 15 -35z m48 18 c0 -10 1 -24 3 -32 2 -8 -3 -16 -12 -18 -20 -5 -30 27 -17
51 12 21 27 21 26 -1z m408 -1 c18 8 35 8 66 -2 24 -7 47 -13 52 -14 5 -1 10
-14 10 -28 2 -25 -1 -26 -74 -31 -44 -4 -76 -2 -78 4 -2 5 -7 7 -11 5 -4 -3
-5 8 -3 25 3 18 0 29 -7 29 -7 0 -9 5 -5 11 4 7 10 7 16 1 7 -7 18 -7 34 0z
m-3239 -59 c-3 -10 -5 -2 -5 17 0 19 2 27 5 18 2 -10 2 -26 0 -35z m3533 31
c0 -8 -5 -12 -10 -9 -6 4 -8 11 -5 16 9 14 15 11 15 -7z m-3070 -18 c0 -27
-15 -42 -25 -26 -8 13 3 50 16 50 5 0 9 -11 9 -24z m1636 8 c-3 -9 -6 -21 -6
-27 0 -7 -14 -20 -30 -29 -17 -9 -30 -24 -30 -33 0 -8 -7 -15 -15 -15 -10 0
-15 10 -15 29 0 29 13 47 40 53 8 2 21 11 28 21 16 21 36 23 28 1z m-206 -25
c0 -10 -4 -19 -9 -19 -12 0 -23 29 -15 41 8 14 24 0 24 -22z m730 15 c0 -2
-11 -4 -25 -4 -14 0 -25 4 -25 9 0 4 11 6 25 3 14 -2 25 -6 25 -8z m110 6 c0
-5 -4 -10 -10 -10 -5 0 -10 5 -10 10 0 6 5 10 10 10 6 0 10 -4 10 -10z m-2462
-38 c3 -25 0 -31 -12 -26 -10 4 -16 18 -16 36 0 40 24 32 28 -10z m513 -16 c5
-6 9 -17 9 -25 -1 -13 -4 -12 -15 3 -8 11 -14 34 -14 50 2 28 2 28 6 6 3 -14
9 -29 14 -34z m376 34 c3 -11 9 -20 14 -20 5 0 9 -7 9 -15 0 -8 -7 -15 -16
-15 -9 0 -22 -7 -29 -17 -18 -25 -35 -7 -35 38 0 22 4 38 9 34 5 -3 12 -1 16
5 10 16 26 11 32 -10z m1752 11 c9 -6 11 -18 7 -35 -7 -28 -29 -26 -24 2 1 10
-1 23 -5 30 -9 14 2 16 22 3z m-2019 -11 c0 -5 -5 -10 -11 -10 -5 0 -7 5 -4
10 3 6 8 10 11 10 2 0 4 -4 4 -10z m1037 -27 c-3 -10 -5 -4 -5 12 0 17 2 24 5
18 2 -7 2 -21 0 -30z m-1731 -10 c-4 -4 -12 -1 -19 7 -9 10 -9 11 1 6 7 -4 12
-2 13 6 0 11 2 11 6 0 3 -7 2 -16 -1 -19z m1794 23 c0 -3 -4 -8 -10 -11 -5 -3
-10 -1 -10 4 0 6 5 11 10 11 6 0 10 -2 10 -4z m630 -6 c0 -5 -4 -10 -10 -10
-5 0 -10 5 -10 10 0 6 5 10 10 10 6 0 10 -4 10 -10z m807 -6 c-3 -3 -12 -4
-19 -1 -8 3 -5 6 6 6 11 1 17 -2 13 -5z m-3117 -16 c0 -4 -7 -8 -15 -8 -8 0
-15 4 -15 8 0 5 7 9 15 9 8 0 15 -4 15 -9z m3300 2 c0 -5 -4 -10 -10 -10 -5 0
-10 5 -10 10 0 6 5 10 10 10 6 0 10 -4 10 -10z m-3270 -10 c0 -5 -4 -10 -10
-10 -5 0 -10 5 -10 10 0 6 5 10 10 10 6 0 10 -4 10 -10z m715 1 c3 -5 1 -12
-5 -16 -5 -3 -10 1 -10 9 0 18 6 21 15 7z m1435 -11 c0 -13 7 -20 20 -20 11 0
20 6 20 14 0 21 17 29 37 17 10 -6 12 -11 6 -11 -7 0 -13 -9 -13 -19 0 -16
-25 -36 -39 -31 -11 5 -18 -27 -10 -48 11 -30 5 -42 -21 -35 -15 4 -22 -2 -30
-23 -7 -19 -8 -30 0 -38 7 -7 10 -6 10 2 0 7 5 12 10 12 20 0 10 -38 -12 -44
-31 -7 -48 13 -50 57 -1 37 26 82 43 71 5 -3 9 13 9 35 0 21 -5 41 -12 43 -16
6 -2 38 17 38 8 0 15 -9 15 -20z m377 14 c-3 -3 -12 -4 -19 -1 -8 3 -5 6 6 6
11 1 17 -2 13 -5z m609 -14 c8 0 14 6 14 13 0 8 4 7 10 -3 5 -8 10 -10 10 -5
0 6 5 3 10 -5 12 -18 13 -31 3 -27 -5 1 -9 -1 -10 -5 -2 -5 -12 -17 -24 -29
-20 -20 -48 -19 -77 4 -10 8 -16 7 -21 -2 -5 -7 -17 -12 -27 -11 -11 1 -22 1
-26 0 -9 -3 -25 -7 -34 -9 -4 0 6 -13 22 -28 25 -23 37 -27 87 -25 31 0 57 -1
57 -4 0 -3 -9 -14 -19 -25 -17 -19 -20 -19 -28 -4 -8 14 -11 12 -23 -10 -11
-20 -21 -26 -49 -25 -20 0 -49 -1 -66 -3 -24 -2 -31 2 -33 20 -2 12 -10 27
-18 33 -8 7 -14 27 -15 44 0 19 -3 25 -7 16 -11 -23 -32 -23 -32 1 0 11 5 17
10 14 6 -3 10 3 10 14 0 59 35 76 112 56 44 -12 55 -12 63 0 6 7 21 11 37 8
15 -3 29 0 34 8 6 10 9 10 12 1 2 -7 10 -12 18 -12z m-2438 -44 c4 -35 -14
-26 -20 9 -4 16 -1 24 6 22 6 -2 12 -16 14 -31z m1041 2 c-8 -14 -14 -18 -17
-10 -4 13 17 46 25 38 3 -2 -1 -15 -8 -28z m702 7 c12 4 19 2 19 -8 0 -9 -11
-14 -30 -14 -26 0 -30 4 -30 26 1 23 2 24 11 8 7 -12 17 -16 30 -12z m82 9
c-4 -11 -1 -15 12 -12 10 2 20 -3 23 -11 3 -10 -3 -11 -29 -6 -44 10 -46 12
-23 30 24 18 25 18 17 -1z m710 -7 c18 -7 23 -32 9 -41 -5 -3 -16 4 -25 15
-10 11 -22 17 -28 13 -6 -3 -5 3 2 15 8 11 16 17 19 12 3 -4 13 -10 23 -14z
m-1358 4 c21 -4 26 -9 17 -15 -7 -4 -19 -5 -27 -2 -14 5 -19 -5 -16 -31 1 -6
-3 -14 -9 -18 -6 -4 -7 -13 -1 -23 16 -29 16 -68 2 -96 -15 -28 -37 -36 -27
-10 3 9 9 27 13 42 5 21 3 24 -11 19 -10 -4 -16 -1 -16 7 0 9 -9 12 -27 9
l-28 -5 25 20 c20 17 24 28 23 66 -2 44 -1 46 25 45 15 -1 41 -4 57 -8z m439
-38 c-3 -27 -9 -52 -15 -57 -11 -12 -12 12 -3 67 9 54 25 45 18 -10z m1010 19
c9 -14 -12 -35 -28 -29 -23 9 -20 37 3 37 11 0 22 -4 25 -8z m-1391 -39 c-6
-38 -18 -43 -27 -10 -4 14 0 26 11 34 21 16 22 15 16 -24z m82 -2 c-7 -24 -27
-27 -44 -7 -10 11 -7 17 11 30 26 19 43 7 33 -23z m205 18 c0 -5 -4 -9 -10 -9
-5 0 -10 7 -10 16 0 8 5 12 10 9 6 -3 10 -10 10 -16z m270 -9 c16 -10 11 -11
-80 -15 -42 -2 -61 6 -35 15 30 11 99 11 115 0z m-420 -26 c0 -16 -16 -19 -25
-4 -8 13 4 32 16 25 5 -4 9 -13 9 -21z m149 -40 c-18 -22 -23 -9 -8 26 12 27
14 28 17 10 2 -12 -2 -28 -9 -36z m-1579 27 c0 -6 -9 -9 -20 -8 -11 1 -20 5
-20 9 0 4 9 8 20 8 11 0 20 -4 20 -9z m2024 -6 c6 -16 -3 -22 -39 -28 -11 -1
-26 -6 -32 -10 -9 -6 -13 -2 -13 12 0 16 6 21 24 21 14 0 28 5 31 10 9 15 22
12 29 -5z m639 -3 c15 -17 15 -21 -1 -55 -14 -32 -21 -37 -43 -33 -14 3 -30 1
-35 -3 -13 -12 -84 -1 -84 13 0 17 43 36 68 29 25 -6 39 15 15 24 -10 4 -22
11 -26 17 -5 7 -13 3 -24 -11 -19 -28 -33 -30 -33 -5 0 29 16 37 83 39 51 2
68 -1 80 -15z m-2891 -38 c-4 -61 5 -86 31 -82 15 2 21 9 19 22 -3 15 2 13 26
-10 34 -33 29 -40 -40 -49 -61 -9 -85 6 -64 37 15 21 11 46 -8 61 -8 6 -7 10
2 14 6 2 12 16 12 30 0 15 5 23 13 20 7 -3 11 -19 9 -43z m2023 36 c-3 -5 -10
-10 -16 -10 -5 0 -9 5 -9 10 0 6 7 10 16 10 8 0 12 -4 9 -10z m-405 -10 c15
-8 18 -17 13 -48 -3 -20 -9 -40 -12 -44 -4 -5 -26 10 -50 32 -23 22 -47 38
-52 34 -5 -3 -9 2 -9 11 0 11 6 14 24 9 14 -3 33 -1 43 5 23 13 21 13 43 1z
m830 -50 c4 0 8 -6 7 -12 -1 -37 4 -46 23 -41 11 3 28 2 37 -2 10 -4 35 -7 56
-6 33 2 37 0 37 -21 0 -22 4 -23 60 -23 33 1 60 -3 60 -7 0 -5 11 -6 24 -2 17
4 28 0 37 -13 8 -11 23 -24 33 -30 19 -10 18 -11 -2 -17 -12 -4 -22 -13 -22
-19 0 -8 -3 -7 -9 1 -12 19 -200 22 -219 4 -8 -7 -19 -9 -25 -5 -7 4 -23 6
-37 5 -17 -2 -33 6 -48 23 l-23 27 -33 -38 c-33 -38 -33 -38 -41 -15 -5 17
-12 21 -28 17 -12 -3 -32 -6 -43 -6 -15 0 -24 -8 -28 -25 -7 -29 -45 -53 -56
-36 -4 7 -11 11 -16 10 -5 -1 -26 -1 -47 0 -43 1 -48 25 -6 27 42 2 45 4 19
17 -19 9 -24 21 -25 50 l-2 38 33 -32 c29 -28 37 -31 71 -25 21 4 59 8 86 10
26 2 54 9 62 16 8 6 18 9 24 6 5 -4 12 3 16 14 8 24 25 17 25 -11 0 -11 5 -17
10 -14 17 11 11 34 -15 57 -26 23 -33 66 -17 118 7 24 7 24 10 -7 2 -18 7 -33
12 -33z m-2255 40 c11 -17 -5 -32 -21 -19 -8 6 -14 15 -14 20 0 12 27 11 35
-1z m1678 -15 c-6 -17 -33 -8 -33 10 0 8 8 11 19 8 11 -3 17 -11 14 -18z
m1122 15 c4 -6 -5 -10 -20 -10 -15 0 -24 4 -20 10 3 6 12 10 20 10 8 0 17 -4
20 -10z m-2668 -10 c7 0 23 -21 34 -46 18 -36 19 -48 9 -57 -10 -9 -14 -9 -17
1 -3 7 -11 19 -19 26 -8 8 -14 24 -14 35 0 16 -6 21 -25 21 -16 0 -25 6 -25
16 0 12 6 15 23 10 12 -3 28 -6 34 -6z m1733 -16 c0 -8 -9 -14 -20 -14 -22 0
-26 10 -8 28 13 13 28 7 28 -14z m30 16 c0 -5 -2 -10 -4 -10 -3 0 -8 5 -11 10
-3 6 -1 10 4 10 6 0 11 -4 11 -10z m-160 -10 c0 -5 -7 -10 -15 -10 -8 0 -15 5
-15 10 0 6 7 10 15 10 8 0 15 -4 15 -10z m-1153 -37 c-21 -21 -27 -15 -16 16
7 19 12 22 21 13 9 -9 8 -16 -5 -29z m1114 -21 c-15 -28 -14 -42 4 -42 8 0 15
-4 15 -10 0 -15 -26 -12 -40 5 -6 8 -9 23 -5 35 4 13 2 20 -7 20 -8 1 -6 6 6
15 25 19 42 4 27 -23z m98 12 c11 7 36 -12 28 -21 -10 -9 -40 9 -43 25 -1 7 0
8 3 2 2 -5 8 -8 12 -6z m301 -12 c0 -35 -9 -45 -27 -31 -21 18 -17 59 7 59 15
0 20 -7 20 -28z m-992 -4 c-4 -27 -28 -36 -28 -10 0 20 8 32 22 32 5 0 8 -10
6 -22z m517 0 c-1 -10 -7 -24 -13 -30 -9 -9 -12 -5 -12 18 0 19 5 31 13 31 7
0 13 -9 12 -19z m409 10 c-3 -4 -9 -8 -15 -8 -5 0 -9 4 -9 8 0 5 7 9 15 9 8 0
12 -4 9 -9z m-1960 -18 c5 -5 6 -16 3 -24 -11 -29 -137 -18 -137 11 0 10 7 14
20 10 10 -3 25 2 31 9 12 15 64 11 83 -6z m1396 16 c0 -3 -4 -8 -10 -11 -5 -3
-10 -1 -10 4 0 6 5 11 10 11 6 0 10 -2 10 -4z m-1070 -21 c0 -16 -35 -21 -44
-6 -8 12 4 21 26 21 10 0 18 -7 18 -15z m610 11 c0 -2 -7 -7 -16 -10 -8 -3
-12 -2 -9 4 6 10 25 14 25 6z m170 -10 c0 -16 -18 -31 -27 -22 -8 8 5 36 17
36 5 0 10 -6 10 -14z m566 -23 c-11 -11 -17 4 -9 23 7 18 8 18 11 1 2 -10 1
-21 -2 -24z m-1176 17 c0 -5 -2 -10 -4 -10 -3 0 -8 5 -11 10 -3 6 -1 10 4 10
6 0 11 -4 11 -10z m907 -50 c-2 -28 -7 -53 -10 -56 -9 -9 -16 28 -12 66 3 42
3 40 16 40 6 0 8 -19 6 -50z m-2107 0 c13 -25 5 -40 -21 -40 -19 0 -24 15 -13
44 8 22 21 20 34 -4z m3315 0 c3 -5 2 -10 -4 -10 -5 0 -13 5 -16 10 -3 6 -2
10 4 10 5 0 13 -4 16 -10z m-1075 -9 c0 -12 -40 -41 -57 -41 -22 0 -14 18 15
33 33 18 42 20 42 8z m-2150 -32 c0 -6 -4 -7 -10 -4 -5 3 -10 11 -10 16 0 6 5
7 10 4 6 -3 10 -11 10 -16z m-176 -43 c18 3 29 -2 40 -18 l16 -22 0 28 0 29
20 -23 c16 -18 20 -20 20 -7 0 25 19 21 29 -5 6 -16 4 -25 -5 -31 -8 -4 -15
-18 -15 -30 -1 -14 -4 -9 -9 13 l-7 35 -2 -40 c-1 -30 -4 -36 -11 -25 -5 8
-10 11 -10 5 0 -5 -5 -3 -10 5 -7 11 -10 11 -10 2 0 -7 -4 -11 -9 -7 -5 3 -12
1 -15 -4 -7 -10 -25 -9 -43 2 -8 5 -13 4 -13 -3 0 -6 -14 -9 -35 -7 -20 3 -38
0 -41 -4 -3 -5 -13 -9 -23 -9 -16 0 -17 5 -11 40 10 56 76 132 92 107 5 -8 8
-5 9 8 0 13 4 9 10 -12 8 -26 13 -31 33 -27z m1371 44 c3 -5 2 -10 -4 -10 -5
0 -13 5 -16 10 -3 6 -2 10 4 10 5 0 13 -4 16 -10z m2065 -10 c0 -5 -7 -10 -15
-10 -8 0 -15 5 -15 10 0 6 7 10 15 10 8 0 15 -4 15 -10z m70 1 c0 -13 -30 -22
-43 -14 -7 4 -2 10 13 14 14 4 26 7 28 8 1 1 2 -3 2 -8z m-3713 -23 c-3 -8 -6
-5 -6 6 -1 11 2 17 5 13 3 -3 4 -12 1 -19z m3600 -10 c-3 -7 -5 -2 -5 12 0 14
2 19 5 13 2 -7 2 -19 0 -25z m-3618 -15 c0 -34 -1 -36 -11 -16 -6 12 -8 29 -5
37 11 27 17 18 16 -21z m67 0 c-10 -10 -19 5 -10 18 6 11 8 11 12 0 2 -7 1
-15 -2 -18z m2304 8 c13 -25 13 -78 0 -86 -5 -3 -10 -1 -10 5 0 7 -6 8 -18 1
-23 -12 -37 -3 -46 32 -9 38 -26 34 -26 -7 0 -45 -21 -51 -40 -12 -17 35 -50
48 -51 19 0 -16 -1 -16 -9 2 -5 11 -9 15 -9 9 -1 -6 -12 -9 -26 -6 -19 3 -25
11 -25 29 0 24 2 25 43 18 23 -4 58 -9 77 -11 19 -2 47 -6 63 -9 20 -3 30 1
39 15 16 25 25 25 38 1z m107 -10 c17 -17 23 -36 23 -67 0 -24 -4 -44 -10 -44
-5 0 -10 5 -10 11 0 8 -4 8 -15 -1 -8 -6 -23 -9 -35 -5 -16 5 -20 15 -20 51 0
45 16 84 34 81 5 -1 20 -13 33 -26z m83 -12 c0 -5 -4 -9 -10 -9 -5 0 -10 7
-10 16 0 8 5 12 10 9 6 -3 10 -10 10 -16z m631 -29 l-8 -35 -7 32 c-8 34 0 61
14 46 5 -4 5 -24 1 -43z m-3147 -12 l-8 -33 -6 30 c-8 37 -1 60 12 47 6 -6 7
-24 2 -44z m2627 39 c-1 -12 -15 -9 -19 4 -3 6 1 10 8 8 6 -3 11 -8 11 -12z
m139 3 c0 -5 -9 -10 -21 -10 -11 0 -17 5 -14 10 3 6 13 10 21 10 8 0 14 -4 14
-10z m-756 -9 c4 -5 3 -17 0 -26 -6 -14 -8 -14 -24 2 -10 10 -16 21 -13 26 6
10 31 9 37 -2z m1216 -21 c24 -25 33 -29 60 -24 19 4 35 15 40 28 7 20 8 20
15 -6 7 -28 21 -33 63 -22 13 4 22 14 22 25 0 11 4 19 9 19 12 0 23 -29 15
-41 -3 -5 4 -9 15 -9 12 0 21 -5 21 -11 0 -5 -4 -8 -9 -5 -5 3 -59 1 -121 -5
-90 -9 -120 -16 -148 -35 -19 -13 -39 -24 -43 -24 -5 0 -9 -19 -10 -42 l0 -43
-15 49 c-18 58 -14 77 17 69 21 -6 22 -4 15 44 -9 72 8 83 54 33z m-155 -2 c4
-15 8 -18 12 -10 4 10 8 10 19 1 19 -15 18 -49 -1 -49 -25 0 -65 31 -65 49 0
36 24 42 35 9z m-718 -20 c-3 -7 -5 -2 -5 12 0 14 2 19 5 13 2 -7 2 -19 0 -25z
m233 -3 c0 -8 -4 -15 -10 -15 -5 0 -10 7 -10 15 0 8 5 15 10 15 6 0 10 -7 10
-15z m989 -2 c26 6 52 -9 29 -18 -31 -12 -73 -1 -77 20 -3 17 -1 18 13 6 9 -7
24 -11 35 -8z m-1509 -19 c0 -22 -26 -16 -27 5 -1 14 3 18 13 14 8 -3 14 -11
14 -19z m692 -16 c-15 -15 -26 -4 -18 18 5 13 9 15 18 6 9 -9 9 -15 0 -24z
m48 22 c0 -5 -7 -10 -15 -10 -8 0 -15 5 -15 10 0 6 7 10 15 10 8 0 15 -4 15
-10z m710 6 c0 -3 -4 -8 -10 -11 -5 -3 -10 -1 -10 4 0 6 5 11 10 11 6 0 10 -2
10 -4z m-1150 -77 c0 -11 -4 -17 -10 -14 -5 3 -10 13 -10 21 0 8 5 14 10 14 6
0 10 -9 10 -21z m50 0 c0 -24 -23 -21 -28 4 -2 10 3 17 12 17 10 0 16 -9 16
-21z m690 -25 c0 -12 5 -26 11 -30 7 -4 8 -21 4 -48 -10 -61 -12 -189 -3 -202
12 -16 -1 -44 -17 -37 -10 3 -12 14 -8 35 4 22 2 29 -8 28 -8 -1 -29 -2 -48
-1 l-33 1 24 33 c31 40 43 84 27 103 -8 10 -16 11 -29 4 -13 -7 -21 -7 -26 1
-4 7 -41 9 -110 6 -57 -2 -104 0 -104 4 0 5 28 10 63 10 34 1 71 3 82 4 11 1
28 2 38 3 10 1 17 10 17 21 0 16 8 20 38 23 33 3 37 6 40 33 2 17 5 36 8 44 7
21 34 -6 34 -35z m-2840 21 c0 -9 -6 -12 -15 -9 -8 4 -12 10 -9 15 8 14 24 10
24 -6z m1858 0 c27 -9 30 -35 3 -30 -11 2 -22 -3 -25 -12 -6 -14 -8 -14 -25 1
-11 10 -30 17 -43 16 -13 -1 -34 -2 -48 -1 -24 1 -24 1 -5 15 33 23 95 28 143
11z m68 0 c4 -8 10 -12 15 -9 5 3 9 0 9 -7 0 -6 8 -18 18 -25 15 -11 15 -16 4
-35 -12 -18 -12 -23 0 -30 7 -5 21 -9 31 -9 11 0 17 -6 14 -12 -3 -10 -27 -12
-88 -9 -92 3 -136 21 -53 21 65 0 77 12 56 56 -8 19 -22 34 -29 34 -14 0 -18
22 -6 33 11 11 23 8 29 -8z m134 -15 c0 -5 -5 -10 -11 -10 -5 0 -7 5 -4 10 3
6 8 10 11 10 2 0 4 -4 4 -10z m990 1 c0 -6 -4 -13 -10 -16 -5 -3 -10 1 -10 9
0 9 5 16 10 16 6 0 10 -4 10 -9z m-973 -47 c-9 -9 -28 6 -21 18 4 6 10 6 17
-1 6 -6 8 -13 4 -17z m883 7 c0 -5 12 -14 28 -19 21 -7 35 -5 66 12 l39 21 14
-22 c14 -20 17 -21 61 -9 57 16 92 18 92 5 0 -5 -6 -9 -14 -9 -7 0 -19 -7 -26
-15 -10 -12 -9 -22 4 -50 18 -38 13 -64 -8 -46 -7 6 -17 7 -21 3 -5 -4 -5 -1
-1 5 11 20 -13 56 -32 47 -9 -3 -26 -6 -37 -5 -11 0 -30 -5 -43 -11 -18 -9
-25 -9 -31 0 -4 7 -17 14 -29 17 -17 3 -26 -4 -38 -27 -26 -51 -2 -128 41
-128 15 0 15 2 1 22 -9 12 -16 30 -16 40 0 23 20 34 31 17 4 -8 14 -14 21 -15
7 0 23 -2 35 -2 16 -2 27 -13 37 -36 8 -19 24 -37 35 -41 13 -4 21 -15 21 -28
0 -16 -3 -18 -9 -9 -5 9 -17 11 -34 7 -22 -6 -28 -3 -37 16 -5 13 -16 33 -25
44 -14 17 -17 18 -25 5 -5 -8 -10 -27 -10 -42 0 -25 -4 -28 -35 -28 -32 0 -35
-2 -29 -24 8 -32 -13 -106 -33 -113 -9 -4 -21 1 -29 12 -15 21 -19 89 -5 81 5
-3 7 -15 4 -26 -4 -14 0 -20 11 -20 18 0 19 4 10 49 -5 25 -9 29 -20 20 -11
-9 -14 -6 -14 15 0 16 5 26 15 26 22 0 18 17 -5 23 -14 4 -20 14 -20 34 0 15
-7 41 -15 57 -22 42 -18 50 11 27 48 -37 86 -16 41 23 -29 25 -40 62 -26 88
10 18 49 26 49 9z m390 -16 c-14 -17 -65 -20 -75 -5 -5 9 7 13 60 23 27 5 30
0 15 -18z m-987 -12 c-4 -9 1 -21 12 -29 17 -13 16 -14 -16 -15 -19 -1 -41 -2
-50 -3 -9 -1 -24 -7 -33 -15 -14 -12 -19 -12 -26 -2 -6 11 -15 11 -38 3 -17
-6 -41 -8 -53 -5 -39 10 -91 83 -59 83 5 0 7 -6 5 -12 -7 -18 39 -37 59 -26
10 5 23 5 35 -2 11 -5 49 -10 86 -10 64 0 65 1 61 24 -5 26 2 39 15 30 4 -2 5
-12 2 -21z m65 16 c-2 -6 -7 -10 -11 -10 -4 1 -15 1 -24 1 -15 0 -16 2 -3 10
20 13 43 13 38 -1z m-2538 -7 c0 -10 -31 -32 -44 -32 -18 0 -19 2 -10 24 5 13
54 20 54 8z m3464 -38 c12 -30 6 -50 -14 -50 -16 0 -20 7 -20 33 0 35 23 46
34 17z m-858 -1 c16 -6 16 -7 0 -12 -9 -4 -36 -4 -59 -2 l-42 5 35 7 c19 3 38
7 42 8 3 0 14 -2 24 -6z m1029 -28 c0 -30 -39 -27 -43 3 -3 20 0 23 20 20 15
-2 23 -10 23 -23z m-91 -10 c15 -11 16 -18 8 -28 -6 -7 -13 -35 -15 -62 -3
-44 -6 -50 -31 -56 -15 -4 -37 -16 -47 -25 -17 -15 -19 -16 -19 -1 0 9 9 21
20 27 11 6 20 18 20 26 0 8 4 13 9 9 10 -6 26 13 18 21 -3 3 -14 1 -24 -4 -10
-5 -24 -7 -30 -5 -15 5 -17 43 -3 43 6 0 10 7 10 15 0 8 6 12 15 9 9 -4 16 3
21 20 7 29 20 32 48 11z m-3424 -10 c-14 -7 -27 -11 -30 -9 -6 7 22 24 40 23
9 0 5 -6 -10 -14z m-50 -29 c0 -2 -7 -7 -16 -10 -8 -3 -12 -2 -9 4 6 10 25 14
25 6z m2220 -8 c0 -5 9 -4 21 2 26 14 27 13 33 -33 3 -22 0 -37 -6 -37 -6 0
-16 -7 -23 -16 -9 -13 -16 -14 -32 -6 -14 8 -23 8 -30 1 -7 -7 -16 -3 -27 13
-16 22 -16 24 9 43 14 12 25 25 25 31 0 6 7 11 15 11 8 0 15 -4 15 -9z m190 2
c0 -5 9 -10 21 -10 12 0 19 -5 17 -12 -6 -18 -36 -22 -53 -8 -19 16 -19 40 0
40 8 0 15 -4 15 -10z m-2660 -10 c0 -5 -5 -10 -11 -10 -5 0 -7 5 -4 10 3 6 8
10 11 10 2 0 4 -4 4 -10z m195 -10 c-9 -14 -45 -32 -45 -23 0 7 24 22 48 32 2
0 0 -3 -3 -9z m2555 -9 c0 -5 -7 -11 -15 -15 -9 -3 -15 0 -15 9 0 8 7 15 15
15 8 0 15 -4 15 -9z m135 0 c3 -5 1 -12 -5 -16 -5 -3 -10 1 -10 9 0 18 6 21
15 7z m115 -16 c0 -14 -4 -25 -9 -25 -12 0 -23 29 -15 41 10 18 24 9 24 -16z
m545 -50 c0 -45 -5 -70 -13 -73 -7 -2 -12 5 -12 17 0 11 -4 23 -10 26 -14 8
-13 46 3 78 20 43 32 25 32 -48z m-1190 35 c3 -5 1 -10 -4 -10 -6 0 -11 5 -11
10 0 6 2 10 4 10 3 0 8 -4 11 -10z m136 -124 c14 -15 11 -36 -5 -36 -17 0 -32
73 -19 92 5 9 9 3 11 -17 2 -16 8 -34 13 -39z m1219 23 c0 -23 -16 -33 -38
-24 -16 6 -16 7 1 16 9 6 15 14 13 18 -3 4 1 8 9 8 8 0 15 -8 15 -18z m-570
-41 c0 -14 -7 -16 -35 -11 -28 4 -36 2 -41 -13 -3 -11 -9 -27 -14 -36 -8 -14
-4 -16 30 -13 40 4 40 4 40 -30 0 -18 6 -36 13 -39 8 -3 7 -9 -6 -20 -14 -11
-17 -22 -12 -45 4 -17 10 -31 15 -31 13 0 24 -101 12 -109 -14 -9 -17 -31 -7
-65 10 -36 -7 -47 -46 -33 -15 6 -31 8 -34 5 -9 -8 -9 -40 0 -60 4 -11 3 -18
-4 -18 -12 0 -41 52 -41 74 0 18 -19 15 -53 -6 -22 -15 -26 -16 -31 -2 -3 9
-4 20 0 25 3 5 0 9 -5 9 -18 0 -12 29 7 39 13 7 23 6 31 -2 14 -14 121 20 121
39 0 8 -6 11 -15 8 -8 -4 -15 -1 -15 6 0 8 -10 9 -30 5 -23 -5 -30 -3 -30 9 0
21 18 30 34 17 30 -25 100 28 80 61 -7 11 -34 10 -34 -1 0 -5 -11 -4 -25 2
-21 10 -24 17 -19 40 5 26 4 27 -35 27 -51 0 -55 20 -3 21 31 0 88 15 72 19
-3 0 -23 3 -45 6 -41 6 -73 24 -42 24 27 0 43 45 28 74 -19 36 4 89 24 56 9
-15 55 -12 72 5 14 14 17 14 29 -2 7 -10 14 -26 14 -35z m224 15 c4 -9 0 -23
-9 -32 -13 -14 -17 -14 -32 1 -13 14 -14 20 -3 32 16 21 36 20 44 -1z m76 -35
c0 -12 -3 -18 -7 -15 -3 4 -13 2 -20 -5 -11 -9 -17 -9 -24 3 -16 26 -10 39 21
39 24 0 30 -4 30 -22z m-512 -10 c2 -11 -3 -18 -12 -18 -9 0 -16 7 -16 16 0
12 -6 15 -25 10 -15 -4 -25 -2 -25 4 0 20 74 7 78 -12z m685 -28 c-3 -11 -11
-20 -18 -20 -17 0 -25 46 -11 60 15 15 36 -14 29 -40z m-642 7 c-8 -8 -11 -7
-11 4 0 20 13 34 18 19 3 -7 -1 -17 -7 -23z m579 7 c0 -30 -27 -52 -36 -30 -8
21 -30 21 -38 -1 -6 -15 -8 -15 -24 1 -11 12 -13 20 -6 23 6 2 19 10 29 17 10
7 31 13 47 12 22 -1 28 -6 28 -22z m-135 -91 c-7 -60 -23 -95 -40 -89 -5 2
-22 -6 -37 -16 -28 -19 -28 -19 -28 1 0 25 -20 38 -31 20 -12 -19 -11 -52 1
-44 6 3 10 -1 10 -10 0 -20 -30 -32 -39 -16 -9 13 -41 4 -41 -12 0 -6 -3 -7
-7 -4 -3 4 -12 2 -20 -4 -10 -9 -13 -6 -13 17 0 22 3 26 10 14 8 -12 10 -10
10 10 0 14 9 31 20 38 11 7 20 19 20 26 0 8 8 15 18 15 9 0 26 2 37 5 11 2 24
5 28 5 5 1 7 15 5 33 -2 25 1 33 16 36 13 3 17 0 14 -9 -16 -42 -17 -57 -4
-74 8 -12 19 -16 30 -12 15 6 17 14 11 48 -5 31 -3 45 11 60 9 10 19 19 22 19
2 0 1 -25 -3 -57z m-525 37 c0 -5 -7 -10 -16 -10 -8 0 -12 5 -9 10 3 6 10 10
16 10 5 0 9 -4 9 -10z m618 -26 c2 -17 -3 -23 -25 -27 -35 -7 -35 -6 -20 26
14 31 41 32 45 1z m-297 -27 c-8 -8 -11 -5 -11 9 0 27 14 41 18 19 2 -9 -1
-22 -7 -28z m489 26 c0 -20 -29 -41 -50 -36 -15 4 -20 0 -20 -15 0 -29 -17
-37 -29 -14 -14 26 -4 58 22 69 29 13 77 11 77 -4z m-130 -43 c0 -28 -17 -33
-31 -9 -9 17 -8 23 2 30 17 10 29 2 29 -21z m156 -50 c8 0 12 -5 9 -10 -9 -15
-35 8 -34 29 1 13 2 13 6 -1 2 -10 11 -18 19 -18z m-546 -30 c0 -5 -4 -10 -10
-10 -5 0 -10 5 -10 10 0 6 5 10 10 10 6 0 10 -4 10 -10z m-240 -49 c0 -16 -19
-23 -43 -15 -21 7 -21 7 -2 15 28 11 45 11 45 0z m456 -16 c7 -29 19 -32 34
-7 11 16 11 16 6 0 -6 -21 3 -23 18 -4 18 22 65 29 72 11 6 -16 -23 -58 -35
-51 -3 2 -7 -10 -8 -27 -1 -17 -12 -40 -23 -51 l-20 -20 -10 30 c-13 36 -74
63 -84 38 -3 -8 -15 -14 -26 -14 -16 0 -20 -7 -20 -30 0 -33 -12 -37 -49 -16
-14 8 -30 12 -36 9 -13 -4 -15 90 -3 102 4 4 23 2 43 -5 48 -16 81 -6 100 30
19 37 33 38 41 5z m260 4 c3 -6 1 -16 -5 -22 -8 -8 -11 -6 -11 8 0 18 -1 17
-16 -3 -9 -13 -13 -29 -10 -37 7 -18 33 -20 39 -2 6 15 41 -3 45 -24 2 -11 -8
-13 -44 -10 -50 3 -64 -6 -64 -46 0 -35 -17 -27 -24 11 -5 25 -1 43 13 67 11
17 17 37 14 44 -7 20 51 33 63 14z m74 1 c22 -13 -2 -34 -30 -25 -17 5 -19 10
-9 21 13 16 19 17 39 4z m-830 -86 c0 -16 -16 -19 -25 -4 -8 13 4 32 16 25 5
-4 9 -13 9 -21z m748 -92 c3 -18 10 -22 38 -22 22 0 34 -5 34 -13 0 -22 -12
-28 -28 -15 -8 7 -23 17 -35 23 -23 11 -45 59 -24 53 6 -3 13 -14 15 -26z
m-661 -34 c-3 -8 -6 -5 -6 6 -1 11 2 17 5 13 3 -3 4 -12 1 -19z m151 10 c5 -7
8 -36 5 -65 -6 -62 -29 -79 -46 -33 -6 16 -15 30 -19 30 -4 0 -8 13 -8 28 0
20 7 32 23 40 29 14 33 14 45 0z m-198 -8 c0 -5 -5 -10 -11 -10 -5 0 -7 5 -4
10 3 6 8 10 11 10 2 0 4 -4 4 -10z m300 -38 c-27 -4 -34 2 -26 23 5 13 8 13
26 -2 l21 -18 -21 -3z m-183 -4 c-3 -8 -6 -5 -6 6 -1 11 2 17 5 13 3 -3 4 -12
1 -19z m-783 -27 c19 -7 18 -9 -10 -32 -123 -101 -161 -173 -175 -334 -11
-127 -1 -212 31 -276 25 -47 96 -121 138 -143 17 -9 32 -21 32 -27 0 -19 -60
7 -108 46 -9 7 -32 26 -50 41 -55 45 -82 98 -107 213 -32 150 -37 161 -78 161
-62 0 -93 -39 -137 -175 -78 -240 -268 -438 -499 -518 -74 -26 -100 -30 -191
-31 -173 0 -296 49 -395 155 -72 78 -168 269 -186 369 -20 117 -16 112 -117
106 -48 -3 -111 -6 -139 -6 -60 0 -111 16 -97 30 26 25 221 111 384 169 19 7
69 26 110 42 84 32 208 65 216 56 3 -3 -8 -24 -25 -47 -36 -50 -71 -189 -71
-281 0 -140 63 -294 152 -374 76 -69 146 -98 243 -103 138 -7 261 41 380 151
124 113 192 277 183 438 -8 138 -71 227 -205 291 -35 17 -65 33 -68 38 -7 11
73 21 110 14 43 -8 114 -56 169 -114 l47 -50 68 0 c38 0 82 -3 99 -6 28 -6 33
-1 85 68 56 76 134 139 171 137 12 0 30 -4 40 -8z m940 -46 c3 -8 1 -15 -4
-15 -6 0 -10 7 -10 15 0 8 2 15 4 15 2 0 6 -7 10 -15z m-177 -37 c-3 -8 -6 -5
-6 6 -1 11 2 17 5 13 3 -3 4 -12 1 -19z m-287 -47 c34 -28 35 -31 34 -95 -1
-73 -18 -110 -29 -60 -4 16 -17 61 -31 99 -34 99 -32 105 26 56z m-2327 -505
c25 -15 107 -148 107 -172 0 -40 -39 -57 -66 -29 -9 9 -34 15 -62 15 -26 1
-65 7 -87 15 -22 8 -47 15 -56 15 -38 0 -124 109 -87 110 7 1 38 14 68 29 59
31 147 39 183 17z m-412 -153 c35 -21 37 -40 4 -55 -20 -9 -25 -19 -27 -62
l-3 -51 -42 39 c-45 40 -53 60 -28 70 8 3 15 14 15 25 0 21 25 51 42 51 5 0
23 -8 39 -17z m2066 -34 c14 -22 44 -49 65 -60 42 -21 70 -66 71 -113 1 -39
-37 -124 -58 -132 -28 -11 -63 16 -70 53 -8 46 -36 55 -136 44 -88 -10 -113
-22 -159 -79 -35 -44 -69 -57 -179 -67 -41 -4 -89 -14 -107 -21 -18 -8 -44
-14 -56 -14 -28 0 -110 41 -115 57 -4 10 27 37 93 80 11 7 50 33 87 59 38 25
84 52 104 60 34 15 37 14 76 -13 38 -26 47 -28 131 -26 111 2 146 13 146 47 0
14 4 27 9 30 5 3 9 28 9 55 0 87 44 107 89 40z m-1667 -159 c47 -21 100 -41
119 -45 39 -8 161 -61 161 -70 0 -10 -33 -60 -49 -72 -19 -16 -112 -17 -145
-2 -32 15 -42 55 -21 79 15 17 13 20 -30 49 -79 53 -125 70 -177 64 -27 -3
-48 -3 -48 0 0 3 15 14 33 26 37 24 41 23 157 -29z m-500 -30 c0 -5 -7 -10
-15 -10 -8 0 -15 5 -15 10 0 6 7 10 15 10 8 0 15 -4 15 -10z m1050 -215 c14
-16 6 -35 -16 -35 -8 0 -14 10 -14 25 0 28 12 32 30 10z m-820 -90 c9 -11 16
-13 24 -5 25 25 56 5 56 -36 0 -22 -37 -54 -63 -54 -17 0 -28 10 -41 40 -25
56 -8 93 24 55z m984 -552 c9 -19 15 -37 12 -40 -6 -6 -56 61 -56 75 0 22 27
1 44 -35z m1319 32 c-3 -9 -8 -14 -10 -11 -3 3 -2 9 2 15 9 16 15 13 8 -4z
m-2100 -101 c24 -7 19 -48 -7 -52 -10 -2 -29 2 -43 9 -18 10 -26 10 -35 1 -7
-7 -26 -12 -44 -12 -69 0 -85 26 -31 52 30 16 110 16 160 2z"/>
<path d="M3390 3454 c0 -22 28 -47 45 -40 21 8 19 33 -4 46 -28 14 -41 13 -41
-6z"/>
<path d="M3510 3379 c0 -5 5 -7 10 -4 6 3 10 8 10 11 0 2 -4 4 -10 4 -5 0 -10
-5 -10 -11z"/>
<path d="M3427 3253 c-56 -6 -41 -28 19 -28 37 0 49 4 49 15 0 16 -12 19 -68
13z"/>
<path d="M3090 3160 c0 -12 28 -25 36 -17 3 3 -4 10 -15 17 -15 7 -21 7 -21 0z"/>
<path d="M331 3134 c0 -11 3 -14 6 -6 3 7 2 16 -1 19 -3 4 -6 -2 -5 -13z"/>
<path d="M267 3108 c8 -44 15 -51 37 -35 18 13 18 15 1 40 -25 39 -46 36 -38
-5z"/>
<path d="M371 3124 c0 -11 3 -14 6 -6 3 7 2 16 -1 19 -3 4 -6 -2 -5 -13z"/>
<path d="M2470 3100 c-12 -8 -11 -10 8 -10 12 0 22 5 22 10 0 13 -11 13 -30 0z"/>
<path d="M3815 2450 c-3 -5 1 -10 10 -10 9 0 13 5 10 10 -3 6 -8 10 -10 10 -2
0 -7 -4 -10 -10z"/>
<path d="M331 3974 c-1 -30 12 -44 40 -44 15 0 10 40 -6 56 -13 14 -15 13 -16
-8 -1 -23 -1 -23 -9 2 -8 24 -8 24 -9 -6z"/>
<path d="M422 3970 c0 -19 2 -27 5 -17 2 9 2 25 0 35 -3 9 -5 1 -5 -18z"/>
<path d="M600 3980 c0 -11 -4 -20 -10 -20 -5 0 -10 -4 -10 -10 0 -14 22 -12
43 4 10 8 15 20 11 30 -9 23 -34 20 -34 -4z"/>
<path d="M1284 3978 c3 -13 6 -27 6 -32 0 -10 50 36 50 47 0 4 -14 7 -31 7
-28 0 -31 -3 -25 -22z"/>
<path d="M2325 3990 c3 -5 10 -10 16 -10 5 0 9 5 9 10 0 6 -7 10 -16 10 -8 0
-12 -4 -9 -10z"/>
<path d="M2420 3990 c0 -5 5 -10 10 -10 6 0 10 5 10 10 0 6 -4 10 -10 10 -5 0
-10 -4 -10 -10z"/>
<path d="M2520 3978 c0 -16 5 -28 10 -28 6 0 10 -17 10 -37 0 -20 2 -34 5 -32
10 10 14 85 5 99 -5 8 -10 11 -10 5 0 -5 -5 -3 -10 5 -8 12 -10 9 -10 -12z"/>
<path d="M282 3960 c0 -14 2 -19 5 -12 2 6 2 18 0 25 -3 6 -5 1 -5 -13z"/>
<path d="M305 3967 c-4 -10 -5 -21 -1 -24 10 -10 18 4 13 24 -4 17 -4 17 -12
0z"/>
<path d="M442 3960 c0 -14 2 -19 5 -12 2 6 2 18 0 25 -3 6 -5 1 -5 -13z"/>
<path d="M462 3960 c0 -14 2 -19 5 -12 2 6 2 18 0 25 -3 6 -5 1 -5 -13z"/>
<path d="M530 3954 c0 -17 4 -22 15 -18 8 4 15 14 15 23 0 10 -7 18 -15 18 -9
0 -15 -10 -15 -23z"/>
<path d="M2315 3960 c-3 -5 -1 -10 4 -10 6 0 11 5 11 10 0 6 -2 10 -4 10 -3 0
-8 -4 -11 -10z"/>
<path d="M890 3932 c0 -28 29 -62 53 -62 16 0 26 9 34 30 12 32 1 49 -20 31
-9 -7 -21 -6 -40 4 -24 12 -27 12 -27 -3z"/>
<path d="M822 3924 c4 -21 22 -23 26 -1 2 10 -3 17 -13 17 -10 0 -15 -6 -13
-16z"/>
<path d="M1068 3932 c-17 -7 -16 -8 2 -20 17 -11 20 -10 20 8 0 11 -1 20 -2
19 -2 0 -11 -4 -20 -7z"/>
<path d="M1296 3911 c-9 -15 18 -31 34 -20 13 8 13 10 0 19 -19 12 -27 12 -34
1z"/>
<path d="M250 3870 c-12 -7 -12 -12 -2 -22 14 -14 35 1 24 19 -5 8 -13 9 -22
3z"/>
<path d="M312 3859 c1 -12 9 -24 16 -27 9 -3 13 3 10 19 -1 12 -9 24 -16 27
-9 3 -13 -3 -10 -19z"/>
<path d="M466 3873 c-3 -3 -1 -14 5 -25 9 -16 13 -17 26 -6 9 7 26 13 37 13
12 0 23 5 26 10 5 10 -84 18 -94 8z"/>
<path d="M110 3866 c0 -2 7 -6 15 -10 8 -3 15 -1 15 4 0 6 -7 10 -15 10 -8 0
-15 -2 -15 -4z"/>
<path d="M178 3863 c6 -2 18 -2 25 0 6 3 1 5 -13 5 -14 0 -19 -2 -12 -5z"/>
<path d="M1373 3814 c0 -13 5 -24 13 -24 16 0 14 38 -2 44 -7 3 -11 -5 -11
-20z"/>
<path d="M1861 3804 c0 -11 3 -14 6 -6 3 7 2 16 -1 19 -3 4 -6 -2 -5 -13z"/>
<path d="M1440 3670 c0 -5 -7 -10 -15 -10 -8 0 -15 -4 -15 -10 0 -5 9 -10 20
-10 13 0 20 7 20 20 0 11 -2 20 -5 20 -3 0 -5 -4 -5 -10z"/>
<path d="M1460 3660 c0 -5 5 -10 11 -10 5 0 7 5 4 10 -3 6 -8 10 -11 10 -2 0
-4 -4 -4 -10z"/>
<path d="M1656 3573 c-5 -11 2 -25 18 -40 31 -28 39 -18 21 25 -15 35 -29 41
-39 15z"/>
<path d="M1593 3541 c-3 -13 -11 -17 -24 -14 -16 5 -19 0 -19 -36 0 -47 11
-52 30 -15 11 19 19 24 37 19 26 -6 31 12 13 46 -14 24 -30 24 -37 0z"/>
<path d="M34 3464 c1 -18 5 -36 10 -41 5 -4 6 -3 3 3 -4 6 2 19 13 29 27 24
25 43 -4 43 -21 0 -24 -5 -22 -34z"/>
<path d="M767 3443 c-11 -10 -8 -61 4 -68 15 -10 19 -3 26 39 4 28 2 36 -9 36
-8 0 -18 -3 -21 -7z"/>
<path d="M1570 3400 c-21 -13 -22 -69 -2 -66 9 2 20 14 23 27 14 49 9 58 -21
39z"/>
<path d="M242 3370 c0 -14 2 -19 5 -12 2 6 2 18 0 25 -3 6 -5 1 -5 -13z"/>
<path d="M332 3360 c0 -14 2 -19 5 -12 2 6 2 18 0 25 -3 6 -5 1 -5 -13z"/>
<path d="M20 3348 c0 -12 3 -18 7 -14 11 10 12 36 2 36 -5 0 -9 -10 -9 -22z"/>
<path d="M372 3335 c0 -16 2 -22 5 -12 2 9 2 23 0 30 -3 6 -5 -1 -5 -18z"/>
<path d="M710 3345 c0 -17 2 -18 24 -9 23 9 20 24 -4 24 -11 0 -20 -7 -20 -15z"/>
<path d="M770 3341 c0 -12 5 -21 10 -21 6 0 10 6 10 14 0 8 -4 18 -10 21 -5 3
-10 -3 -10 -14z"/>
<path d="M462 3330 c0 -14 2 -19 5 -12 2 6 2 18 0 25 -3 6 -5 1 -5 -13z"/>
<path d="M421 3314 c0 -11 3 -14 6 -6 3 7 2 16 -1 19 -3 4 -6 -2 -5 -13z"/>
<path d="M531 3093 c-1 -14 5 -23 14 -23 8 0 15 7 15 16 0 8 -4 13 -9 10 -5
-4 -12 0 -14 6 -3 7 -6 3 -6 -9z"/>
<path d="M8 2944 c3 -15 8 -22 14 -16 9 9 1 42 -12 42 -4 0 -5 -12 -2 -26z"/>
<path d="M3840 1300 c0 -25 4 -30 25 -30 15 0 31 -10 42 -27 10 -14 32 -39 48
-56 25 -25 31 -27 33 -13 5 24 -45 94 -92 128 -49 35 -56 35 -56 -2z"/>
<path d="M3215 679 c9 -22 57 -42 67 -27 10 17 -1 26 -40 34 -25 5 -31 4 -27
-7z"/>
<path d="M3070 603 c-12 -21 -24 -53 -27 -73 l-5 -35 21 25 c20 26 48 107 39
116 -3 3 -16 -12 -28 -33z"/>
<path d="M840 587 c0 -19 16 -31 24 -18 3 5 -1 14 -9 21 -12 10 -15 10 -15 -3z"/>
<path d="M3247 559 c-3 -23 -2 -51 2 -62 7 -19 9 -17 20 16 14 41 12 79 -5 84
-7 2 -14 -14 -17 -38z"/>
<path d="M957 556 c-4 -9 -16 -16 -27 -16 -11 0 -20 -4 -20 -10 0 -9 6 -11 49
-14 25 -2 23 -23 -4 -30 -14 -4 -25 -13 -25 -21 0 -21 66 -20 74 0 3 8 12 15
21 15 23 0 18 28 -7 41 -13 6 -30 20 -39 31 -14 18 -17 19 -22 4z"/>
<path d="M3341 523 c1 -10 -1 -25 -5 -34 -7 -16 39 -109 55 -109 5 0 9 27 9
61 0 51 -4 64 -22 80 -29 23 -40 24 -37 2z"/>
<path d="M212 508 c-16 -16 -15 -35 1 -41 18 -6 67 21 67 38 0 18 -51 20 -68
3z"/>
<path d="M140 490 c0 -5 5 -10 10 -10 6 0 10 5 10 10 0 6 -4 10 -10 10 -5 0
-10 -4 -10 -10z"/>
<path d="M850 438 c-12 -13 -16 -24 -11 -26 16 -5 72 28 66 38 -10 17 -33 11
-55 -12z"/>
<path d="M2980 423 c1 -27 1 -27 15 -9 19 25 19 36 0 36 -10 0 -15 -10 -15
-27z"/>
<path d="M922 369 c2 -7 10 -15 17 -17 8 -3 12 1 9 9 -2 7 -10 15 -17 17 -8 3
-12 -1 -9 -9z"/>
<path d="M3460 333 c0 -5 4 -13 9 -18 5 -6 19 -44 32 -85 13 -41 25 -68 27
-59 4 22 -44 163 -57 167 -6 2 -11 0 -11 -5z"/>
<path d="M3367 308 c-6 -19 4 -49 14 -42 12 7 12 54 0 54 -5 0 -11 -6 -14 -12z"/>
<path d="M3518 110 c-4 -24 -12 -46 -17 -48 -17 -6 -14 -62 3 -62 10 0 17 17
21 53 9 69 2 121 -7 57z"/>
<path d="M3330 19 c0 -11 5 -17 10 -14 6 3 10 13 10 21 0 8 -4 14 -10 14 -5 0
-10 -9 -10 -21z"/>
<path d="M2736 21 c-4 -7 -5 -15 -2 -18 9 -9 19 4 14 18 -4 11 -6 11 -12 0z"/>
</g>
</svg>
